# xmcd CD database file
#
# Track frame offsets:
#	150
#	15367
#	30770
#	42731
#	57232
#	72950
#	87922
#	100552
#	117669
#
# Disc length: 1798 seconds
#
# Revision: 0
# Processed by: cddbd v1.5.1PL2 Copyright (c) Steve Scherf et al.
# Submitted via: CDex 1.51
#
DISCID=6a070409
DTITLE=Arvel M Beckham, Jr - Country Style
DYEAR=2005
DGENRE=Country
TTITLE0=Don't Play That Song
TTITLE1=I Dream Coming Home
TTITLE2=Redneck Grandma
TTITLE3=First to Ride Him
TTITLE4=Grandpa Don't Go Anywhere
TTITLE5=When's My Daddy Coming Home
TTITLE6=Broken Heart
TTITLE7=Christ Spreads His Wings
TTITLE8=The Beauty of Christ
EXTD=YEAR: 2005
EXTT0=
EXTT1=
EXTT2=
EXTT3=
EXTT4=
EXTT5=
EXTT6=
EXTT7=
EXTT8=
PLAYORDER=
